<svg width="32" height="32" viewBox="0 0 32 32" fill="none" xmlns="http://www.w3.org/2000/svg">
<rect width="32" height="32" rx="8" fill="white"/>
<path d="M4.05304 9.9233C4.05304 9.47309 4.37348 8.92054 4.76506 8.69543L15.2915 2.64451C15.6831 2.4194 16.324 2.4194 16.7156 2.64451L27.2422 8.69543C27.6338 8.92054 27.9543 9.47309 27.9543 9.9233V22.025C27.9543 22.4752 27.6338 23.0277 27.2422 23.253L16.7156 29.3043C16.324 29.5294 15.6831 29.5294 15.2915 29.3043L4.76506 23.253C4.37348 23.0279 4.05304 22.4754 4.05304 22.025V9.9233Z" fill="white"/>
<path d="M10.8665 10.4142C10.5046 10.1479 9.84036 9.93004 9.39029 9.93004H9.31915C8.86908 9.93004 8.5009 10.2966 8.5009 10.7447V24.6471C8.5009 25.0952 8.18199 25.2785 7.79233 25.0543L4.72814 23.2928C4.33848 23.0686 4.01957 22.519 4.01957 22.0707V9.91477C4.01957 9.46665 4.33848 8.91678 4.72814 8.69282L15.3016 2.61554C15.6913 2.39158 16.3291 2.39158 16.7189 2.61554L21.3178 5.25857C21.7076 5.48253 22.0266 6.03241 22.0266 6.48052V17.8129C22.0266 18.261 21.7305 18.4096 21.3686 18.1432L10.8665 10.4142Z" fill="#006EAB"/>
<path d="M27.2915 8.69269C27.6812 8.91665 28.0001 9.46653 28.0001 9.91464V22.0705C28.0001 22.5186 27.6812 23.0685 27.2915 23.2925L16.7188 29.3703C16.3292 29.5943 15.6914 29.5943 15.3015 29.3703L10.9172 26.8508C10.5276 26.6269 10.2087 26.077 10.2087 25.6289V13.3623C10.2087 12.9141 10.5048 12.7654 10.8666 13.0318L21.3687 20.7606C21.7306 21.0269 22.3949 21.2448 22.8449 21.2448H22.9163C23.3663 21.2448 23.7345 20.8782 23.7345 20.4301V7.46273C23.7345 7.01462 24.0534 6.83133 24.4431 7.05529L27.2915 8.69269Z" fill="#0F3659"/>
</svg>
